# xmcd
#
# Track frame offsets:
#	150
#	4678
#	12848
#	31224
#	50760
#	70603
#	75887
#	94216
#	113630
#	133113
#	136771
#	156432
#	176058
#	200250
#	217599
#	235915
#	258716
#	278363
#	286484
#
# Disc length: 4143 seconds
#
# Revision: 0
# Processed by: cddbd v1.4PL0 Copyright (c) Steve Scherf et al.
# Submitted via: EasyCDDAExtractor 4.6.9.1
#
DISCID=f9102d13
DTITLE=112 - Room 112
DYEAR=1996
DGENRE=R&B
TTITLE0=Room 112 [ Intro ]
TTITLE1=So Much Love [ Interlude ]
TTITLE2=Be With You
TTITLE3=Love Me
TTITLE4=The Only One
TTITLE5=Anywhere [ Interlude ]
TTITLE6=Anywhere
TTITLE7=Love You Like I Did
TTITLE8=For A While
TTITLE9=Don't Go Away [ Interlude ]
TTITLE10=Stay With Me
TTITLE11=Whatcha Gonna Do
TTITLE12=Crazy Over You
TTITLE13=Funny Feelings
TTITLE14=Never Mind
TTITLE15=Someone To Hold
TTITLE16=All My Love
TTITLE17=You Are The Only One [ Interlude ]
TTITLE18=Your Letter
EXTD=
EXTT0=
EXTT1=
EXTT2=
EXTT3=
EXTT4=
EXTT5=
EXTT6=
EXTT7=
EXTT8=
EXTT9=
EXTT10=
EXTT11=
EXTT12=
EXTT13=
EXTT14=
EXTT15=
EXTT16=
EXTT17=
EXTT18=
PLAYORDER=
